<?xml version="1.0" encoding="UTF-8"?>
<svg width="719.664453px" height="610.367745px" viewBox="0 0 719.664453 610.367745" version="1.1" xmlns="http://www.w3.org/2000/svg" xmlns:xlink="http://www.w3.org/1999/xlink">
    <title>Yaobots</title>
    <g id="Page-1" stroke="none" stroke-width="1" fill="none" fill-rule="evenodd">
        <g id="Yaobots" transform="translate(-151.5657, -188.764)" fill-rule="nonzero">
            <polygon id="Path" points="0 0 1024 0 1024 1024 0 1024"></polygon>
            <path d="M486.884,189.207 C495.1615,188.4345 505.165,188.919 513.59,188.864 C599.61,188.302 684.55,217.9475 749.645,274.6415 C820.74,337.335 864.11,425.629 870.28,520.215 C874.69,585.13 864.71,657.9 819.94,708.215 C766.135,768.695 672.935,788.13 595.875,795.7 C576.14,797.64 557.055,797.635 537.68,798.92 C436.9495,800.75 298.6425,791.955 218.4915,723.25 C173.8735,685 156.2745,627.825 152.411,570.625 C145.8345,474.4635 177.8325,379.6425 241.3305,307.127 C292.7155,248.288 362.5635,208.649 439.428,194.7065 C455.6785,191.7125 470.5135,190.32 486.884,189.207 Z" id="Path" fill="#3371FC"></path>
            <g id="Eye-left" transform="translate(352.7054, 366.1909)" fill="#FFFFFE">
                <path d="M54.3200771,0.00131773874 C90.5575771,-0.297352792 107.046077,50.2461472 109.269077,79.1841472 C111.987077,114.573147 98.0685771,173.204147 55.0560771,176.574147 C19.8370771,176.004147 3.26007709,132.680147 0.574577092,103.311147 C-2.06042291,74.4961472 4.20857709,41.4316472 22.6780771,18.3306472 C30.9835771,7.94264721 41.0875771,1.40214721 54.3200771,0.00131773874 Z M67.8166257,49.886467 L66.8260771,49.8991472 C34.0975771,56.7616472 37.5585771,132.225647 70.5330771,131.761147 C103.215077,124.145147 100.147077,48.7151472 66.8260771,49.8991472 Z" id="Combined-Shape"></path>
            </g>
            <g id="Eye-right" transform="translate(562.8175, 366.1247)" fill="#FFFFFE">
                <path d="M76.7075112,8.55926237 C96.7425112,24.6522624 104.512511,49.8777624 107.982511,74.3482624 C112.957511,109.387262 99.1125112,171.335262 57.0025112,176.520262 C47.7325112,176.880262 37.7225112,173.635262 30.7025112,167.460262 C-8.8974888,132.641762 -8.5574888,58.3082624 22.3475112,18.0877624 C30.2475112,7.80826237 40.7175112,1.45976237 53.2275112,0.0662623674 C61.0975112,-0.590737633 70.7075112,3.73926237 76.7075112,8.55926237 Z M39.6166685,49.9369618 L38.6575112,49.9567624 C5.9375112,57.6252624 10.0475112,133.248262 43.3725112,131.767262 C76.3675112,122.553262 70.8975112,48.5472624 38.6575112,49.9567624 Z" id="Combined-Shape"></path>
            </g>
        </g>
    </g>
</svg>